Exact Audio Copy V0.99 prebeta 1 from 25. May 2007

EAC 抓取日志文件从26. 十一月 2010, 17:41

迪里拜尔 / 20世纪中华歌坛名人百集珍藏版

使用驱动器  ：BENQ    DVD-ROM 16X   Adapter: 0  ID: 1

读取模式     : 保护
使用精确流   : 是
废除音频缓冲 : 是
使用 C2 指针 : 否

读取偏移校正                   : 738
读取 Lead-In 和 Lead-Out       : 否
用静音填充抓取中丢失偏移的采样 : 是
去除首尾静音块                 : 否
已用接口                       : Win NT 及 2000 本地 Win32 接口

所用输出格式 : 内部 WAV 函数
样本格式     : 44.100 Hz;16 Bit;立体声


被抓轨 CD 的 TOC

     音轨 |   开始   |   长度   | 起始扇区 | 结尾扇区 
    --------------------------------------------------
       1  |  0:00.32 |  3:01.28 |      32  |   13634  
       2  |  3:01.60 |  2:54.32 |   13635  |   26716  
       3  |  5:56.17 |  3:54.38 |   26717  |   44304  
       4  |  9:50.55 |  4:31.72 |   44305  |   64701  
       5  | 14:22.52 |  2:48.15 |   64702  |   77316  
       6  | 17:10.67 |  3:05.03 |   77317  |   91194  
       7  | 20:15.70 |  4:04.45 |   91195  |  109539  
       8  | 24:20.40 |  5:10.50 |  109540  |  132839  
       9  | 29:31.15 |  2:05.52 |  132840  |  142266  
      10  | 31:36.67 |  4:04.65 |  142267  |  160631  
      11  | 35:41.57 |  2:44.63 |  160632  |  172994  
      12  | 38:26.45 |  3:23.12 |  172995  |  188231  
      13  | 41:49.57 |  4:36.70 |  188232  |  209001  
      14  | 46:26.52 |  3:41.23 |  209002  |  225599  


范围状态及错误

已选择范围

     文件名 E:\文件夹\20世纪中华歌坛名人百集珍藏版-迪里拜尔[lwg188原创]\迪里拜尔 - 20世纪中华歌坛名人百集珍藏版.wav

     峰值电平 97.7 %
     范围质量 100.0 %
     复制 CRC 0309B8C9
     复制成功

没有错误发生

状态报告结尾
